# xmcd
#
# Track frame offsets: 
#        150
#        12825
#        26250
#        38615
#        49250
#        57780
#        70445
#        79265
#        88435
#        100230
#        112545
#        121230
#        133400
#        146130
#        160945
#        175335
#        188045
#        199240
#        210570
#        224310
#        238305
#        250865
#        263085
#        273620
#
# Disc length: 3815 seconds
#
# Revision: 0
# Processed by: cddbd v1.5PL3 Copyright (c) Steve Scherf et al.
# Submitted via: ExactAudioCopy v0.95a5
#
DISCID=630ee518
DTITLE=Tex Ritter - Singin' In The Saddle
DYEAR=1900
DGENRE=Country
TTITLE0=I'm Wastin' My Tears On You
TTITLE1=Blood On The Saddle
TTITLE2=Sing Cowboy Sing
TTITLE3=Green Grow The Lilacs
TTITLE4=Keeper Of The Key
TTITLE5=(I've Got Spurs That) Jingle Jangle Jingle
TTITLE6=Cielito Lindo
TTITLE7=Froggie Went A-Courtin'
TTITLE8=The Hills Of Old Wyomin'
TTITLE9=Texas Ranger Song
TTITLE10=Rye Whiskey
TTITLE11=The Old Chisholm Trail
TTITLE12=Sam Hall
TTITLE13=I Dreamed Of A Hillbilly Heaven
TTITLE14=Oregon Trail
TTITLE15=Singin' In The Saddle
TTITLE16=Al Viva Tequila
TTITLE17=When It's Lamplighting Time In The Valley
TTITLE18=Conversation With A Gun
TTITLE19=Cattle Call
TTITLE20=A-Ridin' Old Paint
TTITLE21=Goodbye My Little Cherokee
TTITLE22=Have I Stayed Away
TTITLE23=High Noon
EXTD=
EXTT0=
EXTT1=
EXTT2=
EXTT3=
EXTT4=
EXTT5=
EXTT6=
EXTT7=
EXTT8=
EXTT9=
EXTT10=
EXTT11=
EXTT12=
EXTT13=
EXTT14=
EXTT15=
EXTT16=
EXTT17=
EXTT18=
EXTT19=
EXTT20=
EXTT21=
EXTT22=
EXTT23=
PLAYORDER=
